<svg width="504" height="470" viewBox="0 0 504 470" fill="none" xmlns="http://www.w3.org/2000/svg">
<path d="M252.24 469.195C391.122 469.195 503.708 462.622 503.708 454.514C503.708 446.405 391.122 439.832 252.24 439.832C113.358 439.832 0.772461 446.405 0.772461 454.514C0.772461 462.622 113.358 469.195 252.24 469.195Z" fill="#F5F5F5"/>
<path d="M274.431 442.53C274.025 442.529 273.631 442.388 273.317 442.13C273.002 441.873 272.787 441.514 272.706 441.116L248.064 319.773H205.147L180.505 441.116C180.388 441.548 180.11 441.92 179.729 442.155C179.348 442.39 178.891 442.471 178.452 442.382C178.013 442.293 177.624 442.04 177.365 441.675C177.106 441.31 176.995 440.86 177.055 440.416L201.983 317.659C202.066 317.261 202.282 316.905 202.596 316.647C202.91 316.39 203.302 316.248 203.708 316.245H249.49C249.897 316.246 250.29 316.387 250.605 316.644C250.919 316.902 251.135 317.26 251.215 317.659L276.156 440.416C276.248 440.873 276.155 441.348 275.897 441.737C275.639 442.126 275.238 442.397 274.781 442.491L274.431 442.53Z" fill="#407BFF"/>
<path d="M205.55 442.53C205.144 442.527 204.751 442.385 204.438 442.127C204.124 441.87 203.907 441.513 203.825 441.116L179.182 319.773H136.266L111.624 441.116C111.591 441.355 111.51 441.585 111.385 441.792C111.26 441.998 111.094 442.177 110.897 442.316C110.701 442.456 110.477 442.554 110.241 442.604C110.005 442.654 109.761 442.655 109.525 442.607C109.289 442.559 109.064 442.463 108.867 442.325C108.669 442.187 108.501 442.01 108.375 441.804C108.248 441.599 108.165 441.37 108.13 441.131C108.096 440.892 108.11 440.649 108.174 440.416L133.114 317.659C133.195 317.26 133.411 316.902 133.725 316.644C134.039 316.387 134.433 316.246 134.839 316.245H180.622C181.027 316.246 181.419 316.388 181.731 316.646C182.043 316.903 182.256 317.261 182.334 317.659L207.274 440.416C207.366 440.873 207.273 441.348 207.016 441.737C206.758 442.126 206.357 442.397 205.9 442.491L205.55 442.53Z" fill="#407BFF"/>
<path d="M215.186 318.022H136.331C129.093 318.023 122.143 315.187 116.973 310.121C111.803 305.055 108.826 298.165 108.68 290.928L105.748 171.089C105.693 168.41 106.173 165.748 107.16 163.257C108.146 160.766 109.62 158.497 111.494 156.582C113.369 154.668 115.607 153.147 118.076 152.108C120.546 151.069 123.198 150.533 125.877 150.532H175.317C180.265 150.535 185.039 152.359 188.73 155.654C192.42 158.95 194.769 163.488 195.329 168.404L215.186 318.022Z" fill="#407BFF"/>
<path d="M172.179 302.847H249.348C252.213 302.847 254.961 303.986 256.987 306.012C259.013 308.038 260.152 310.786 260.152 313.651V314.027C260.152 315.059 259.742 316.049 259.012 316.778C258.282 317.508 257.293 317.918 256.261 317.918H172.179V302.847Z" fill="#407BFF"/>
<g opacity="0.3">
<path opacity="0.3" d="M274.431 442.53C274.025 442.529 273.631 442.388 273.317 442.13C273.002 441.873 272.787 441.514 272.706 441.116L248.064 319.773H205.147L180.505 441.116C180.388 441.548 180.11 441.92 179.729 442.155C179.348 442.39 178.891 442.471 178.452 442.382C178.013 442.293 177.624 442.04 177.365 441.675C177.106 441.31 176.995 440.86 177.055 440.416L201.983 317.659C202.066 317.261 202.282 316.905 202.596 316.647C202.91 316.39 203.302 316.248 203.708 316.245H249.49C249.897 316.246 250.29 316.387 250.605 316.644C250.919 316.902 251.135 317.26 251.215 317.659L276.156 440.416C276.248 440.873 276.155 441.348 275.897 441.737C275.639 442.126 275.238 442.397 274.781 442.491L274.431 442.53Z" fill="black"/>
<path opacity="0.3" d="M205.55 442.53C205.144 442.527 204.751 442.385 204.438 442.127C204.124 441.87 203.907 441.513 203.825 441.116L179.182 319.773H136.266L111.624 441.116C111.591 441.355 111.51 441.585 111.385 441.792C111.26 441.998 111.094 442.177 110.897 442.316C110.701 442.456 110.477 442.554 110.241 442.604C110.005 442.654 109.761 442.655 109.525 442.607C109.289 442.559 109.064 442.463 108.867 442.325C108.669 442.187 108.501 442.01 108.375 441.804C108.248 441.599 108.165 441.37 108.13 441.131C108.096 440.892 108.11 440.649 108.174 440.416L133.114 317.659C133.195 317.26 133.411 316.902 133.725 316.644C134.039 316.387 134.433 316.246 134.839 316.245H180.622C181.027 316.246 181.419 316.388 181.731 316.646C182.043 316.903 182.256 317.261 182.334 317.659L207.274 440.416C207.366 440.873 207.273 441.348 207.016 441.737C206.758 442.126 206.357 442.397 205.9 442.491L205.55 442.53Z" fill="black"/>
<path opacity="0.3" d="M215.186 318.022H136.331C129.093 318.023 122.143 315.187 116.973 310.121C111.803 305.055 108.826 298.165 108.68 290.928L105.748 171.089C105.693 168.41 106.173 165.748 107.16 163.257C108.146 160.766 109.62 158.497 111.494 156.582C113.369 154.668 115.607 153.147 118.076 152.108C120.546 151.069 123.198 150.533 125.877 150.532H175.317C180.265 150.535 185.039 152.359 188.73 155.654C192.42 158.95 194.769 163.488 195.329 168.404L215.186 318.022Z" fill="black"/>
<path opacity="0.3" d="M172.179 302.847H249.348C252.213 302.847 254.961 303.985 256.987 306.012C259.013 308.038 260.152 310.786 260.152 313.651V314.027C260.152 315.059 259.742 316.049 259.012 316.778C258.282 317.508 257.293 317.918 256.261 317.918H172.179V302.847Z" fill="black"/>
</g>
<path d="M193.241 143.918C193.241 143.918 204.266 158.314 197.132 186.977C189.999 215.64 153.191 200.076 150.96 174.241C148.367 143.788 182.554 164.786 188.572 137.705L193.241 143.918Z" fill="#263238"/>
<path d="M185.239 135.371C180.453 138.743 178.56 143.645 183.851 148.444C189.143 153.243 196.691 153.087 198.974 151.116C201.257 149.145 200.803 139.132 200.803 139.132L185.239 135.371Z" fill="#407BFF"/>
<path opacity="0.8" d="M185.239 135.371C180.453 138.743 178.56 143.645 183.851 148.444C189.143 153.243 196.691 153.087 198.974 151.116C201.257 149.145 200.803 139.132 200.803 139.132L185.239 135.371Z" fill="white"/>
<path d="M245.677 199.168C245.807 199.752 246.028 200.66 246.235 201.425L246.858 203.863C247.299 205.497 247.778 207.132 248.284 208.766C249.244 212.06 250.308 215.341 251.423 218.623C252.538 221.904 253.68 225.107 254.925 228.428C255.534 230.049 256.144 231.683 256.792 233.304L257.545 235.25C257.695 235.582 257.891 235.892 258.128 236.17C259.974 238.038 262.224 239.457 264.704 240.321C267.733 241.54 270.856 242.511 274.042 243.226C277.336 243.991 280.721 244.627 284.145 245.158C287.569 245.69 291.084 246.118 294.456 246.455L294.573 253.433C287.174 254.198 279.716 254.198 272.317 253.433C268.45 253.034 264.626 252.292 260.891 251.215C258.868 250.604 256.898 249.828 255.003 248.894C252.82 247.833 250.823 246.427 249.088 244.73C248.082 243.728 247.21 242.599 246.494 241.371C246.3 241.06 246.131 240.71 245.95 240.386L245.613 239.685L245.016 238.388C244.212 236.741 243.408 235.094 242.668 233.421C241.164 230.075 239.698 226.703 238.388 223.266C237.079 219.829 235.795 216.366 234.705 212.89C234.173 211.1 233.655 209.323 233.175 207.495L232.461 204.758C232.254 203.772 232.059 202.955 231.852 201.788L245.677 199.168Z" fill="#E58A7B"/>
<path d="M241.268 184.435C246.832 185.848 250.71 208.727 250.71 208.727L235.392 219.103C235.392 219.103 220.698 196.017 225.017 189.908C229.439 183.631 233.149 182.412 241.268 184.435Z" fill="#407BFF"/>
<path opacity="0.5" d="M241.268 184.435C246.832 185.848 250.71 208.727 250.71 208.727L235.392 219.103C235.392 219.103 220.698 196.017 225.017 189.908C229.439 183.631 233.149 182.412 241.268 184.435Z" fill="white"/>
<path opacity="0.2" d="M239.27 190.193L225.951 200.751C228.545 207.164 231.7 213.335 235.38 219.193L246.002 211.969L239.27 190.193Z" fill="#407BFF"/>
<path d="M241.268 184.435C241.268 184.435 247.752 186.691 234.783 265.845H180.025C180.946 243.55 180.972 229.802 170.324 184.033C177.992 182.453 185.763 181.43 193.578 180.972C201.864 180.381 210.181 180.381 218.467 180.972C229.154 181.996 241.268 184.435 241.268 184.435Z" fill="#407BFF"/>
<path opacity="0.5" d="M241.268 184.435C241.268 184.435 247.752 186.691 234.783 265.845H180.025C180.946 243.55 180.972 229.802 170.324 184.033C177.992 182.453 185.763 181.43 193.578 180.972C201.864 180.381 210.181 180.381 218.467 180.972C229.154 181.996 241.268 184.435 241.268 184.435Z" fill="white"/>
<path d="M292.446 246.391L302.004 236.689L303.301 250.359C303.301 250.359 296.129 255.21 291.175 252.603L292.446 246.391Z" fill="#E58A7B"/>
<path d="M313.288 235.25L313.716 246.741L303.288 250.359L302.03 236.689L313.288 235.25Z" fill="#E58A7B"/>
<path d="M296.933 429.949H310.422L312.497 398.706H299.008L296.933 429.949Z" fill="#E58A7B"/>
<path d="M244.731 429.949H258.219L262.551 398.706H249.063L244.731 429.949Z" fill="#E58A7B"/>
<path d="M259.062 428.38H243.901C243.639 428.375 243.385 428.465 243.187 428.635C242.988 428.805 242.859 429.042 242.824 429.301L241.099 441.298C241.068 441.601 241.101 441.907 241.196 442.196C241.291 442.486 241.445 442.752 241.649 442.978C241.853 443.204 242.103 443.385 242.381 443.509C242.659 443.633 242.96 443.697 243.265 443.697C248.544 443.606 251.047 443.295 257.752 443.295C261.85 443.295 272.369 443.723 278.037 443.723C283.704 443.723 284.003 438.12 281.642 437.614C271.072 435.332 264.872 432.206 261.306 429.21C260.68 428.676 259.885 428.381 259.062 428.38Z" fill="#263238"/>
<path d="M311.472 428.38H296.337C296.076 428.377 295.823 428.469 295.625 428.638C295.428 428.808 295.298 429.043 295.26 429.301L293.535 441.298C293.504 441.601 293.537 441.907 293.632 442.196C293.727 442.486 293.881 442.752 294.085 442.978C294.29 443.204 294.539 443.385 294.817 443.509C295.095 443.633 295.396 443.697 295.701 443.697C300.98 443.606 303.483 443.295 310.188 443.295C314.299 443.295 322.769 443.723 328.436 443.723C334.104 443.723 334.402 438.12 332.042 437.614C321.472 435.332 317.308 432.206 313.755 429.21C313.117 428.671 312.307 428.377 311.472 428.38V428.38Z" fill="#263238"/>
<path d="M230.516 125.708C235.367 126.02 237.831 150.351 223.603 148.937C209.376 147.523 230.516 125.708 230.516 125.708Z" fill="#263238"/>
<path d="M312.497 398.706L311.42 414.814H297.932L298.995 398.706H312.497Z" fill="#CF6F64"/>
<path d="M249.063 398.706H262.564L260.32 414.814H246.819L249.063 398.706Z" fill="#CF6F64"/>
<path opacity="0.2" d="M175.797 209.479C177.094 216.12 178.015 221.852 178.715 227.014L181.919 202.229L175.797 209.479Z" fill="#407BFF"/>
<path d="M196.043 153.01C197.612 161.012 199.181 175.68 193.579 181.024C193.579 181.024 195.77 189.143 210.647 189.143C227.001 189.143 218.428 181.024 218.428 181.024C209.492 178.897 209.726 172.269 211.282 166.057L196.043 153.01Z" fill="#E58A7B"/>
<path d="M207.689 190.881L212.67 189.091L212.008 187.729L207.689 190.881Z" fill="#263238"/>
<path d="M217.352 189.843L212.67 189.091L213.682 187.573L217.352 189.843Z" fill="#263238"/>
<path d="M195.394 177.25L192.009 180.544C191.908 180.648 191.851 180.788 191.851 180.933C191.851 181.078 191.908 181.218 192.009 181.322L206.276 197.573C206.954 193.713 209.021 190.235 212.086 187.794C200.284 183.332 197.21 178.715 196.159 177.418C196.135 177.343 196.091 177.275 196.033 177.222C195.974 177.169 195.903 177.132 195.825 177.115C195.748 177.097 195.667 177.101 195.592 177.125C195.516 177.148 195.448 177.191 195.394 177.25V177.25Z" fill="#407BFF"/>
<path d="M215.782 179.74L219.985 180.881C220.11 180.916 220.225 180.984 220.316 181.077C220.407 181.171 220.472 181.286 220.503 181.413C221.691 186.743 221.467 192.291 219.855 197.508C219.258 195.303 217.261 190.025 213.681 187.573C217.572 184.889 216.003 181.426 215.445 180.116C215.427 180.067 215.423 180.014 215.432 179.963C215.442 179.912 215.466 179.865 215.5 179.826C215.535 179.787 215.58 179.759 215.629 179.744C215.679 179.728 215.732 179.727 215.782 179.74Z" fill="#407BFF"/>
<path d="M202.281 158.327L211.36 166.044C210.983 167.49 210.727 168.965 210.595 170.454C207.184 169.961 202.502 166.226 202.138 162.672C201.916 161.227 201.965 159.754 202.281 158.327V158.327Z" fill="#CF6F64"/>
<path d="M195.174 131.921C193.63 145.215 192.684 150.818 198.131 158.755C206.302 170.7 222.981 169.688 228.467 157.121C233.408 145.811 235.094 125.994 223.162 118.419C220.538 116.744 217.528 115.768 214.42 115.583C211.311 115.398 208.207 116.012 205.403 117.365C202.598 118.717 200.186 120.765 198.396 123.313C196.605 125.861 195.496 128.824 195.174 131.921V131.921Z" fill="#E58A7B"/>
<path d="M225.575 109.963C203.591 101.287 187.081 111.079 183.67 124.995C178.313 146.603 195.42 148.12 195.42 148.12L197.56 142.595C200.634 144.45 209.233 143.632 206.639 127.589C205.109 118.51 216.6 131.156 231.178 129.742C235.055 129.366 240.36 115.8 225.575 109.963Z" fill="#263238"/>
<path d="M233.058 115.307C230.166 110.858 224.252 107.045 211.995 105.242C211.995 105.242 218.363 106.682 220.426 111.338C222.488 115.994 236.547 120.663 233.058 115.307Z" fill="#263238"/>
<path d="M190.946 143.425C190.856 144.703 191.02 145.987 191.427 147.202C191.834 148.417 192.477 149.54 193.319 150.506C195.589 153.1 198.572 151.505 199.506 148.392C200.336 145.578 200.167 140.857 197.132 139.43C194.097 138.004 191.192 140.26 190.946 143.425Z" fill="#E58A7B"/>
<path d="M234.822 265.897C234.822 265.897 325.272 274.314 324.39 315.441C323.469 358.24 314.313 411.701 314.313 411.701H295.623C295.623 411.701 294.028 366.463 293.483 324.325C293.211 302.38 205.809 297.984 205.809 297.984L194.525 265.897H234.822Z" fill="#263238"/>
<path d="M220.348 265.897C220.348 265.897 278.802 285.286 280.28 309.28C282.991 353.455 263.575 411.74 263.575 411.74H245.172C245.172 411.74 246.222 373.091 248.414 333.066C251.189 282.77 162.451 332.366 180.025 265.936L220.348 265.897Z" fill="#263238"/>
<path d="M214.408 139.171C214.213 140.234 214.628 141.207 215.329 141.337C216.029 141.467 216.742 140.688 216.937 139.625C217.131 138.561 216.716 137.576 216.016 137.459C215.316 137.342 214.628 138.094 214.408 139.171Z" fill="#263238"/>
<path d="M226.508 141.337C226.314 142.4 226.729 143.373 227.429 143.503C228.13 143.632 228.856 142.854 229.05 141.791C229.245 140.727 228.83 139.742 228.13 139.625C227.429 139.508 226.703 140.26 226.508 141.337Z" fill="#263238"/>
<path d="M227.805 139.625L230.516 139.339C230.516 139.339 228.895 141.116 227.805 139.625Z" fill="#263238"/>
<path d="M222.981 142.595C223.5 145.208 224.372 147.739 225.574 150.117C224.964 150.395 224.3 150.539 223.629 150.539C222.958 150.539 222.294 150.395 221.684 150.117L222.981 142.595Z" fill="#DF5753"/>
<path d="M217.222 153.58C215.799 153.354 214.449 152.796 213.282 151.951C212.114 151.106 211.163 149.998 210.504 148.717C210.482 148.667 210.48 148.61 210.5 148.559C210.519 148.508 210.558 148.467 210.608 148.444C210.659 148.426 210.716 148.428 210.766 148.45C210.817 148.472 210.857 148.511 210.88 148.561C211.504 149.772 212.402 150.82 213.503 151.622C214.604 152.424 215.878 152.957 217.222 153.178C217.276 153.191 217.323 153.223 217.355 153.268C217.386 153.314 217.399 153.37 217.391 153.424C217.381 153.464 217.36 153.5 217.33 153.528C217.3 153.555 217.262 153.574 217.222 153.58V153.58Z" fill="#263238"/>
<path d="M211.567 134.385C211.511 134.387 211.455 134.377 211.403 134.354C211.352 134.332 211.306 134.298 211.269 134.255C211.23 134.219 211.198 134.175 211.177 134.126C211.156 134.077 211.145 134.024 211.145 133.97C211.145 133.917 211.156 133.864 211.177 133.814C211.198 133.765 211.23 133.721 211.269 133.685C211.968 133.002 212.82 132.497 213.755 132.213C214.689 131.929 215.678 131.873 216.639 132.051C216.74 132.081 216.826 132.149 216.879 132.24C216.932 132.332 216.948 132.44 216.924 132.543C216.912 132.596 216.889 132.645 216.858 132.689C216.826 132.732 216.786 132.769 216.74 132.797C216.694 132.824 216.643 132.843 216.59 132.85C216.537 132.858 216.483 132.855 216.431 132.842C215.602 132.695 214.751 132.75 213.947 133C213.144 133.251 212.412 133.69 211.814 134.281C211.744 134.341 211.658 134.377 211.567 134.385Z" fill="#263238"/>
<path d="M233.123 136.512C233.042 136.515 232.963 136.493 232.896 136.449C232.828 136.405 232.776 136.341 232.747 136.266C232.43 135.487 231.933 134.795 231.298 134.245C230.662 133.695 229.905 133.303 229.089 133.101C228.984 133.082 228.89 133.023 228.827 132.936C228.764 132.849 228.737 132.741 228.752 132.634C228.771 132.526 228.832 132.43 228.922 132.366C229.012 132.303 229.124 132.278 229.232 132.297C230.182 132.517 231.065 132.963 231.806 133.598C232.546 134.232 233.123 135.036 233.486 135.941C233.53 136.041 233.533 136.154 233.494 136.256C233.455 136.358 233.378 136.441 233.279 136.486L233.123 136.512Z" fill="#263238"/>
<path d="M178.508 203.604C177.328 207.495 176.057 211.386 174.928 215.38C173.8 219.375 172.607 223.266 171.582 227.222C170.558 231.177 169.585 235.094 168.859 238.894C168.508 240.814 168.184 242.72 168.003 244.51C167.899 245.405 167.847 246.248 167.834 247.026C167.834 247.208 167.834 247.026 167.704 246.728C167.546 246.376 167.326 246.056 167.056 245.781C166.394 245.21 166.148 245.314 166.446 245.405C166.989 245.537 167.548 245.594 168.106 245.574C169.852 245.514 171.589 245.292 173.294 244.912C177.157 244.061 180.965 242.974 184.694 241.657C192.359 239.063 200.141 235.898 207.716 232.669L211.062 238.777C203.876 243.488 196.365 247.684 188.585 251.332C184.557 253.232 180.401 254.849 176.148 256.17C173.779 256.891 171.347 257.382 168.885 257.635C167.347 257.793 165.795 257.754 164.267 257.519C163.253 257.367 162.264 257.083 161.323 256.675C160.108 256.15 159.006 255.392 158.081 254.445C156.282 252.549 155.252 250.053 155.189 247.441C155.124 246.144 155.111 244.847 155.189 243.68C155.279 241.281 155.5 239.011 155.798 236.793C156.421 232.357 157.225 228.078 158.211 223.823C159.196 219.569 160.247 215.458 161.401 211.334C162.555 207.209 163.8 203.163 165.292 199.039L178.508 203.604Z" fill="#E58A7B"/>
<path d="M263.679 430.65C262.484 430.62 261.296 430.455 260.139 430.157C260.095 430.149 260.055 430.128 260.024 430.096C259.993 430.065 259.972 430.025 259.963 429.982C259.955 429.939 259.96 429.894 259.977 429.854C259.995 429.813 260.024 429.779 260.061 429.755C260.515 429.457 264.561 426.837 266.105 427.524C266.266 427.597 266.405 427.713 266.506 427.859C266.606 428.006 266.665 428.177 266.675 428.354C266.74 428.642 266.728 428.942 266.642 429.223C266.555 429.505 266.397 429.76 266.182 429.962C265.455 430.479 264.569 430.723 263.679 430.65ZM260.761 429.846C263.264 430.364 265.145 430.3 265.871 429.625C266.029 429.471 266.145 429.28 266.209 429.069C266.273 428.858 266.281 428.634 266.234 428.419C266.229 428.317 266.197 428.218 266.139 428.134C266.082 428.049 266.003 427.982 265.91 427.939C264.924 427.498 262.188 428.964 260.761 429.846V429.846Z" fill="#407BFF"/>
<path d="M260.191 430.17H260.074C260.038 430.149 260.008 430.119 259.987 430.082C259.966 430.046 259.956 430.004 259.957 429.962C259.957 429.807 259.957 425.968 261.41 424.697C261.58 424.534 261.786 424.412 262.011 424.342C262.236 424.273 262.474 424.256 262.707 424.295C262.94 424.293 263.168 424.372 263.35 424.518C263.532 424.665 263.657 424.87 263.705 425.099C263.978 426.499 261.721 429.366 260.307 430.17H260.191ZM262.473 424.697C262.188 424.699 261.914 424.81 261.708 425.008C260.683 425.916 260.476 428.484 260.411 429.508C261.708 428.575 263.446 426.214 263.225 425.164C263.225 424.995 263.096 424.774 262.629 424.71L262.473 424.697Z" fill="#407BFF"/>
<path d="M316.543 430.65C315.118 430.618 313.699 430.458 312.302 430.17C312.257 430.158 312.215 430.134 312.183 430.099C312.151 430.065 312.129 430.022 312.121 429.975C312.114 429.928 312.123 429.879 312.146 429.837C312.17 429.795 312.206 429.761 312.25 429.742C312.847 429.431 318.177 426.707 319.799 427.589C319.939 427.667 320.058 427.779 320.145 427.915C320.231 428.051 320.281 428.206 320.292 428.367C320.328 428.637 320.298 428.912 320.202 429.168C320.107 429.424 319.951 429.652 319.747 429.833C318.804 430.463 317.673 430.751 316.543 430.65ZM313.054 429.846C314.792 430.144 318.242 430.572 319.436 429.508C319.584 429.369 319.698 429.197 319.768 429.005C319.838 428.814 319.862 428.608 319.838 428.406C319.836 428.318 319.812 428.232 319.766 428.157C319.721 428.081 319.656 428.02 319.578 427.978C318.515 427.407 314.935 428.925 313.054 429.846V429.846Z" fill="#407BFF"/>
<path d="M312.354 430.17C312.312 430.183 312.267 430.183 312.224 430.17C312.193 430.145 312.167 430.114 312.149 430.078C312.131 430.042 312.122 430.002 312.121 429.962C312.121 429.807 312.445 426.214 314.105 424.775C314.338 424.576 314.608 424.428 314.901 424.339C315.193 424.249 315.5 424.221 315.804 424.256C316.634 424.334 316.867 424.749 316.932 425.073C317.166 426.564 314.027 429.418 312.445 430.131L312.354 430.17ZM315.558 424.697C315.131 424.695 314.72 424.852 314.403 425.138C313.184 426.149 312.756 428.575 312.626 429.547C314.325 428.601 316.647 426.162 316.517 425.164C316.517 425.06 316.517 424.775 315.804 424.71L315.558 424.697Z" fill="#407BFF"/>
<path d="M207.404 232.876L220.192 229.634L214.097 241.916C214.097 241.916 205.446 242.292 202.593 237.468L207.404 232.876Z" fill="#E58A7B"/>
<path d="M230.529 234.29L224.874 244.303L214.096 241.916L220.192 229.634L230.529 234.29Z" fill="#E58A7B"/>
<path d="M215.692 137.459L218.402 137.174C218.402 137.174 216.729 138.95 215.692 137.459Z" fill="#263238"/>
<path d="M179.208 262.68L178.767 267.583C178.586 267.972 179.027 268.361 179.662 268.361H235.094C235.587 268.361 235.989 268.115 236.028 267.803L236.521 262.901C236.521 262.564 236.119 262.278 235.587 262.278H180.103C179.932 262.264 179.76 262.293 179.604 262.364C179.447 262.434 179.311 262.543 179.208 262.68V262.68Z" fill="#407BFF"/>
<path d="M186.666 268.893H185.174C184.876 268.893 184.656 268.737 184.669 268.556L185.369 262.175C185.369 261.993 185.654 261.837 185.953 261.837H187.392C187.69 261.837 187.911 261.993 187.898 262.175L187.198 268.556C187.211 268.737 186.951 268.893 186.666 268.893Z" fill="#263238"/>
<path d="M230.918 268.893H229.427C229.128 268.893 228.908 268.737 228.921 268.556L229.621 262.175C229.621 261.993 229.906 261.837 230.205 261.837H231.683C231.982 261.837 232.202 261.993 232.189 262.175L231.489 268.556C231.489 268.737 231.203 268.893 230.918 268.893Z" fill="#263238"/>
<path d="M208.792 268.893H207.3C207.002 268.893 206.782 268.737 206.794 268.556L207.495 262.175C207.495 261.993 207.78 261.837 208.078 261.837H209.557C209.855 261.837 210.076 261.993 210.063 262.175L209.362 268.556C209.337 268.737 209.09 268.893 208.792 268.893Z" fill="#263238"/>
<path d="M170.324 184.085C164.825 185.758 158.236 204.654 158.236 204.654L175.94 221.943C175.94 221.943 187.301 204.11 185.019 197.015C182.593 189.623 176.588 182.191 170.324 184.085Z" fill="#407BFF"/>
<path opacity="0.5" d="M170.324 184.085C164.825 185.758 158.236 204.654 158.236 204.654L175.94 221.943C175.94 221.943 187.301 204.11 185.019 197.015C182.593 189.623 176.588 182.191 170.324 184.085Z" fill="white"/>
<path d="M464.501 252.422H361.315V453.126H464.501V252.422Z" fill="#407BFF"/>
<path opacity="0.6" d="M464.501 252.422H361.315V453.126H464.501V252.422Z" fill="white"/>
<path d="M264.6 252.422H161.414V453.126H264.6V252.422Z" fill="#407BFF"/>
<path opacity="0.6" d="M264.6 252.422H161.414V453.126H264.6V252.422Z" fill="white"/>
<path d="M468.366 252.422H459.857V453.126H468.366V252.422Z" fill="#407BFF"/>
<path opacity="0.3" d="M468.366 252.422H459.857V453.126H468.366V252.422Z" fill="black"/>
<path d="M265.832 267.479H470.999V252.422L265.832 252.422V267.479Z" fill="#407BFF"/>
<path opacity="0.3" d="M265.832 267.479H470.999V252.422L265.832 252.422V267.479Z" fill="black"/>
<path d="M268.478 252.422H259.97V453.126H268.478V252.422Z" fill="#407BFF"/>
<path opacity="0.3" d="M268.478 252.422H259.97V453.126H268.478V252.422Z" fill="black"/>
<path d="M265.339 300.435H464.112V257.078H265.339V300.435Z" fill="#407BFF"/>
<path opacity="0.3" d="M265.339 300.435H464.112V257.078H265.339V300.435Z" fill="black"/>
<path d="M464.553 458.962H407.266C403.377 458.959 399.648 457.412 396.897 454.662C394.147 451.912 392.601 448.183 392.597 444.294V263.549C392.597 260.11 391.231 256.811 388.799 254.378C386.366 251.946 383.068 250.58 379.628 250.58H362.482V249.283H379.615C383.398 249.283 387.027 250.786 389.703 253.461C392.378 256.137 393.881 259.766 393.881 263.549V444.294C393.885 447.839 395.295 451.238 397.802 453.745C400.309 456.252 403.708 457.662 407.253 457.665H464.553C465.528 457.667 466.479 457.361 467.27 456.791C468.061 456.221 468.651 455.415 468.957 454.489C469.264 453.563 469.27 452.565 468.975 451.635C468.68 450.706 468.099 449.893 467.315 449.313L468.08 448.275C469.081 449.018 469.822 450.057 470.199 451.245C470.575 452.433 470.568 453.71 470.177 454.893C469.786 456.077 469.033 457.107 468.023 457.837C467.013 458.568 465.799 458.962 464.553 458.962Z" fill="#407BFF"/>
<path opacity="0.3" d="M464.553 458.962H407.266C403.377 458.959 399.648 457.412 396.897 454.662C394.147 451.912 392.601 448.183 392.597 444.294V263.549C392.597 260.11 391.231 256.811 388.799 254.378C386.366 251.946 383.068 250.58 379.628 250.58H362.482V249.283H379.615C383.398 249.283 387.027 250.786 389.703 253.461C392.378 256.137 393.881 259.766 393.881 263.549V444.294C393.885 447.839 395.295 451.238 397.802 453.745C400.309 456.252 403.708 457.662 407.253 457.665H464.553C465.528 457.667 466.479 457.361 467.27 456.791C468.061 456.221 468.651 455.415 468.957 454.489C469.264 453.563 469.27 452.565 468.975 451.635C468.68 450.706 468.099 449.893 467.315 449.313L468.08 448.275C469.081 449.018 469.822 450.057 470.199 451.245C470.575 452.433 470.568 453.71 470.177 454.893C469.786 456.077 469.033 457.107 468.023 457.837C467.013 458.568 465.799 458.962 464.553 458.962Z" fill="black"/>
<path d="M472.905 311.641H471.608V336.711H472.905V311.641Z" fill="#407BFF"/>
<path opacity="0.3" d="M472.905 311.641H471.608V336.711H472.905V311.641Z" fill="black"/>
<path d="M472.905 296.842H471.608V303.431H472.905V296.842Z" fill="#407BFF"/>
<path opacity="0.3" d="M472.905 296.842H471.608V303.431H472.905V296.842Z" fill="black"/>
<path d="M377.916 192.502H281.759L267.83 249.283H363.973L377.916 192.502Z" fill="#407BFF"/>
<path opacity="0.4" d="M377.916 192.502H281.759L267.83 249.283H363.973L377.916 192.502Z" fill="white"/>
<path d="M270.774 249.283L270.385 252.421H232.656L233.045 249.283H270.774Z" fill="#407BFF"/>
<path opacity="0.4" d="M270.774 249.283L270.385 252.421H232.656L233.045 249.283H270.774Z" fill="white"/>
<path d="M366.93 249.283L366.541 252.421H270.385L270.774 249.283H366.93Z" fill="#407BFF"/>
<path opacity="0.5" d="M366.93 249.283L366.541 252.421H270.385L270.774 249.283H366.93Z" fill="black"/>
<path d="M380.873 192.502H284.716L270.787 249.283H366.93L380.873 192.502Z" fill="#407BFF"/>
<path opacity="0.5" d="M380.873 192.502H284.716L270.787 249.283H366.93L380.873 192.502Z" fill="black"/>
<path d="M418.005 238.116C418.005 238.116 403.855 213.72 423.439 194.305C423.439 194.305 428.562 197.651 428.484 202.086C428.406 206.522 422.998 207.715 424.152 211.451C425.307 215.186 430.43 218.882 427.07 221.982C423.711 225.082 427.615 227.831 427.382 231.618C427.148 235.405 418.005 238.116 418.005 238.116Z" fill="#407BFF"/>
<path d="M419.081 240.347C419.081 240.347 424.814 212.734 400.068 200.504C400.068 200.504 396.255 205.29 397.746 209.583C399.238 213.876 404.724 213.188 404.802 217.118C404.879 221.048 401.196 226.132 405.359 228.013C409.523 229.893 406.656 233.745 408.096 237.273C409.536 240.801 419.081 240.347 419.081 240.347Z" fill="#407BFF"/>
<path opacity="0.5" d="M419.081 240.347C419.081 240.347 424.814 212.734 400.068 200.504C400.068 200.504 396.255 205.29 397.746 209.583C399.238 213.876 404.724 213.188 404.802 217.118C404.879 221.048 401.196 226.132 405.359 228.013C409.523 229.893 406.656 233.745 408.096 237.273C409.536 240.801 419.081 240.347 419.081 240.347Z" fill="black"/>
<path d="M397.396 234.225C397.396 234.225 397.876 252.383 415.917 252.383C433.957 252.383 434.424 234.225 434.424 234.225H397.396Z" fill="#407BFF"/>
<path opacity="0.5" d="M397.396 234.225C397.396 234.225 397.876 252.383 415.917 252.383C433.957 252.383 434.424 234.225 434.424 234.225H397.396Z" fill="black"/>
<path d="M276.307 135.2L307.938 164.407L328.278 126.462L316.051 128.518L308.744 85.0556L281.227 89.682L288.535 133.144L276.307 135.2Z" fill="#407BFF"/>
<path d="M338.007 107.4C338.007 97.7688 341.833 88.5319 348.644 81.7216C355.454 74.9112 364.691 71.0852 374.322 71.0852V80.54C370.797 80.5383 367.306 81.2312 364.049 82.5789C360.792 83.9267 357.832 85.903 355.339 88.395C352.846 90.8869 350.868 93.8457 349.519 97.1022C348.17 100.359 347.475 103.849 347.475 107.374L338.007 107.4Z" fill="#407BFF"/>
<path d="M338.007 107.4H347.475C347.475 114.52 350.304 121.349 355.338 126.384C360.373 131.419 367.202 134.247 374.322 134.247C379.033 134.256 383.661 133.011 387.733 130.642L392.48 138.903C386.959 142.091 380.697 143.769 374.322 143.768C367.947 143.768 361.685 142.09 356.164 138.903C350.643 135.715 346.059 131.131 342.872 125.61C339.685 120.089 338.007 113.827 338.007 107.452V107.4Z" fill="#407BFF"/>
<path opacity="0.5" d="M338.007 107.4H347.475C347.475 114.52 350.304 121.349 355.338 126.384C360.373 131.419 367.202 134.247 374.322 134.247C379.033 134.256 383.661 133.011 387.733 130.642L392.48 138.903C386.959 142.091 380.697 143.769 374.322 143.768C367.947 143.768 361.685 142.09 356.164 138.903C350.643 135.715 346.059 131.131 342.872 125.61C339.685 120.089 338.007 113.827 338.007 107.452V107.4Z" fill="white"/>
<path d="M374.322 80.54V71.0592C382.342 71.0286 390.146 73.6535 396.517 78.5243C402.888 83.3952 407.468 90.2381 409.541 97.9851C411.615 105.732 411.065 113.948 407.979 121.35C404.892 128.752 399.443 134.924 392.48 138.903L387.746 130.693C392.902 127.758 396.94 123.196 399.228 117.721C401.516 112.246 401.925 106.168 400.391 100.436C398.857 94.7039 395.466 89.6422 390.75 86.0423C386.033 82.4424 380.256 80.5074 374.322 80.54V80.54Z" fill="#407BFF"/>
<path opacity="0.7" d="M374.322 80.54V71.0592C382.342 71.0286 390.146 73.6535 396.517 78.5243C402.888 83.3952 407.468 90.2381 409.541 97.9851C411.615 105.732 411.065 113.948 407.979 121.35C404.892 128.752 399.443 134.924 392.48 138.903L387.746 130.693C392.902 127.758 396.94 123.196 399.228 117.721C401.516 112.246 401.925 106.168 400.391 100.436C398.857 94.7039 395.466 89.6422 390.75 86.0423C386.033 82.4424 380.256 80.5074 374.322 80.54V80.54Z" fill="black"/>
</svg>
